<svg xmlns="http://www.w3.org/2000/svg" class="u-svg-ico u-copyBlue" viewBox="0 0 45 45" role="presentation" color= "blue" aria-hidden="true"><path d="M35.64 13.74c3.46 0 7.17.83 7.34 2.63v16.74c0 1.9-3.8 2.76-7.34 2.76-3.46 0-7.17-.83-7.34-2.63V16.5c0-1.9 3.8-2.76 7.34-2.76zm6.01 18.27c-1.42.74-3.77 1.1-6.01 1.1-2.11 0-4.31-.31-5.75-.97l-.26-.12v1.08c.1.38 2.1 1.38 6.01 1.38 3.79 0 5.79-.94 6-1.35l.01-.04v-1.08zm0-2.76c-1.42.74-3.77 1.09-6.01 1.09-2.11 0-4.31-.31-5.75-.96l-.26-.13v1.09c.1.37 2.1 1.38 6.01 1.38 3.79 0 5.79-.95 6-1.36l.01-.03v-1.08zm0-2.77c-1.42.74-3.77 1.09-6.01 1.09-2.11 0-4.31-.3-5.75-.96l-.26-.13v1.09c.1.37 2.1 1.38 6.01 1.38 3.79 0 5.79-.95 6-1.35l.01-.04v-1.08zM36.98 9h.09a.6.6 0 01.47.5v2.17c0 .33-.25.59-.56.59h-.1a.58.58 0 01-.47-.5V10.2H4.14v15.4h22.14c.31 0 .57.27.57.6 0 .3-.2.54-.48.58l-.1.01H3.49a.58.58 0 01-.47-.5l-.01-.1V9.5a.58.58 0 01.48-.48l.1-.01h33.4zm4.67 14.72c-1.42.74-3.77 1.08-6.01 1.08-2.11 0-4.31-.3-5.75-.96l-.26-.12v1.08c.1.38 2.1 1.39 6.01 1.39 3.79 0 5.79-.95 6-1.36l.01-.04v-1.07zM9.23 11.77h5.03c.32 0 .57.26.57.59 0 .3-.2.54-.48.58l-.09.01h-4.8l-2.64 2.67v4.5l2.4 2.7h5.04c.32 0 .57.27.57.6 0 .3-.2.54-.48.59H8.96a.56.56 0 01-.35-.12l-.07-.07-2.72-3.07a.6.6 0 01-.14-.31v-5c0-.15.03-.29.1-.4l.06-.1 2.99-3a.5.5 0 01.31-.17h5.12zm10.38.04a5.98 5.98 0 015.88 6.08 5.98 5.98 0 01-5.88 6.08 6 6 0 01-5.88-6.08 5.98 5.98 0 015.88-6.08zm22.04 9.14c-1.42.74-3.77 1.09-6.01 1.09-2.11 0-4.31-.31-5.75-.96l-.26-.13v1.09c.1.37 2.1 1.38 6.01 1.38 3.79 0 5.79-.95 6-1.36l.01-.03v-1.08zm-22.04-8.04a4.9 4.9 0 00-4.81 4.98 4.9 4.9 0 004.8 4.98 4.9 4.9 0 004.82-4.98 4.9 4.9 0 00-4.81-4.98zm0 1.87c.37 0 .66.3.66.69h.67c.37 0 .67.31.67.7 0 .37-.3.68-.67.68h-1.67c-.2 0-.33.12-.33.18 0 .05.12.17.33.17h.82c.8.03 1.48.7 1.52 1.56a1.6 1.6 0 01-1.34 1.52v.03c0 .38-.3.7-.66.7a.68.68 0 01-.67-.7h-.67a.68.68 0 01-.67-.7c0-.37.3-.68.67-.68h1.67c.2 0 .33-.12.33-.18 0-.05-.12-.17-.33-.17h-.67a1.62 1.62 0 01-1.67-1.56 1.6 1.6 0 011.34-1.52v-.03c0-.38.3-.7.67-.7zm22.04 3.4c-1.42.74-3.77 1.1-6.01 1.1-2.11 0-4.31-.32-5.75-.97l-.26-.12v1.08c.1.38 2.1 1.39 6.01 1.39 3.79 0 5.79-.95 6-1.36l.01-.04V18.2zm-6.01-3.06c-3.78 0-5.78.95-6 1.36l-.01.04c.1.36 2.1 1.37 6.01 1.37 3.88 0 5.88-1 6.01-1.38-.13-.4-2.13-1.39-6.01-1.39zm-5.39-3.35c.32 0 .58.26.58.59 0 .3-.21.54-.48.58l-.1.01h-5.3a.58.58 0 01-.57-.6c0-.29.2-.53.48-.58h5.4z" fill="#ffffff" /></svg>