<svg xmlns="http://www.w3.org/2000/svg" viewBox="0 0 250.7 56.8"><path fill="#fff" d="M162.4 9.2v16.1c0 5.5-6.6 10.1-14.5 10.1s-14.5-4.6-14.5-10.1V9.4h-5.9v15.8c0 8.8 9.2 16 20.4 16 11.3 0 20.4-7.2 20.4-16v-16h-5.9zm82.4 0v16.1c0 5.5-6.6 10.1-14.5 10.1s-14.5-4.6-14.5-10.1V9.4h-5.9v15.8c0 8.8 9.2 16 20.4 16 11.3 0 20.4-7.2 20.4-16v-16h-5.9zm-66.2 32.1h-5.9V9.2h5.9v13c9.2-12 26-13 26.2-13l.3 5.9c-1.1.1-26.5 1.6-26.5 26.2zM118 9.2V14c-3.7-2.9-8.8-4.8-14.5-4.8-11.3 0-20.4 7.2-20.4 16s9.2 16 20.4 16c5.7 0 10.8-1.8 14.5-4.8v4.3c0 5.5-6.6 10.1-14.5 10.1-6.3 0-11.8-3-13.7-7l-5.7 1.8c2.6 6.5 10.4 11.2 19.4 11.2 11 0 20-6.9 20.4-15.5V9.2H118zm-14.5 26.1c-7.9 0-14.5-4.6-14.5-10.1s6.6-10.1 14.5-10.1S118 19.7 118 25.2s-6.6 10.1-14.5 10.1zM46.6 33.9c2.8.7 5.5 1.6 8.1 2.9 2.6 1.2 4.9 2.7 7.1 4.4 2.2 1.7 4.2 3.6 6.1 5.7 1.9 2.1 3.5 4.3 4.9 6.8H62.3c-1.6-1.9-3.3-3.6-5.2-5.1-1.9-1.5-4-2.8-6.2-3.9s-4.5-1.9-6.9-2.5c-2.4-.6-4.9-.9-7.6-.9-2.7 0-5.2.3-7.7.9-2.5.6-4.8 1.4-6.9 2.5-2.2 1.1-4.2 2.4-6.1 3.9-1.9 1.5-3.7 3.2-5.2 5.1H0c1.4-2.5 3-4.7 4.9-6.9 1.9-2.1 3.9-4 6.2-5.7 2.3-1.7 4.7-3.1 7.2-4.3 2.6-1.2 5.3-2.2 8.1-2.9-2.5-.6-4.8-1.4-6.9-2.4-2.2-1-4.2-2.2-6.2-3.6S9.5 25 7.8 23.3c-1.7-1.7-3.2-3.6-4.6-5.5.7-1.1 1.4-2.1 2.3-3.1.8-1 1.7-1.9 2.6-2.8S9.9 10 11 9.2c1-.8 2-1.6 3-2.3.1-.9.3-1.7.7-2.4.4-.7.9-1.4 1.5-2 .6-.6 1.3-1.1 2.1-1.4.8-.3 1.6-.5 2.5-.5 1 0 1.9.2 2.7.6.8.4 1.6.9 2.2 1.5.6.6 1.2 1.4 1.5 2.2.6.9.8 1.8.8 2.8 0 1-.2 1.9-.6 2.7-.4.8-.9 1.6-1.5 2.2-.6.6-1.4 1.1-2.2 1.5-.8.3-1.7.5-2.7.5h-.7c-.2 0-.5 0-.7-.1-.2 0-.4-.1-.7-.2-.2-.1-.5-.2-.7-.3-.4.3-.8.6-1.1.9-.3.3-.7.6-1.1.9-.4.3-.8.6-1.1.9-.3.3-.7.6-1 1 1.5 1.4 3 2.7 4.7 3.8 1.7 1.2 3.5 2.2 5.4 2.9 1.9.8 3.9 1.4 6 1.8 2.1.4 4.3.7 6.4.7 2.2 0 4.3-.2 6.4-.7 2.1-.4 4.1-1.1 6-1.8 1.9-.8 3.7-1.8 5.4-2.9 1.7-1.2 3.2-2.5 4.7-3.8h.1v-1.2c0-1 .2-1.9.5-2.8.3-.9.9-1.7 1.5-2.4.7-.7 1.5-1.2 2.4-1.5.9-.3 1.8-.5 2.8-.5 1 0 1.9.2 2.8.5.9.3 1.6.9 2.3 1.5.6.7 1.2 1.5 1.5 2.4.4.9.6 1.8.6 2.8 0 1-.2 1.9-.6 2.8-.4.9-.9 1.6-1.5 2.3-.6.6-1.4 1.2-2.3 1.5-.9.4-1.8.6-2.8.6h-.8c-.1 0-.3 0-.4-.1-.1 0-.2-.1-.4-.1-1.2 1.2-2.5 2.3-3.9 3.4s-2.9 2.1-4.4 2.9c-1.5.9-3.1 1.7-4.8 2.4-1.4.8-3.2 1.3-4.9 1.7z"/><path fill="#fff" d="M32 8.7V7.5c0-.6-.1-1.2-.1-1.8-.1-.6-.2-1.3-.4-1.8-.2-.6-.5-1.2-.8-1.7-.3-.5-.7-1.1-1-1.5.5-.1 1-.2 1.6-.2.6 0 1.2-.1 1.8-.1.6 0 1.2-.1 1.8-.1.5-.3 1.1-.3 1.6-.3 2.2 0 4.3.2 6.4.5C45 .8 47 1.3 49 2c2 .6 3.9 1.4 5.7 2.4 1.8.9 3.6 2 5.2 3.2-.6.4-1.1.9-1.6 1.4-.5.5-.9 1.1-1.3 1.7-.3.6-.7 1.2-1 1.9-.3.7-.5 1.4-.6 2.1-1.3-1-2.7-1.9-4.2-2.7-1.5-.8-3.1-1.4-4.6-2-1.6-.5-3.2-.9-4.9-1.2-1.7-.2-3.5-.4-5.2-.4h-2.4c-.4 0-.8 0-1.1.1-.3 0-.6.1-1 .2zM29.9 18.3c0-1 .2-1.9.6-2.7.4-.8.9-1.6 1.5-2.2.6-.6 1.4-1.2 2.2-1.5.8-.4 1.7-.6 2.7-.6 1 0 1.9.2 2.8.6.9.4 1.6.9 2.3 1.5.6.6 1.1 1.4 1.5 2.2.3.8.5 1.7.5 2.7 0 1-.2 1.9-.5 2.7-.3.8-.8 1.6-1.5 2.2-.6.6-1.4 1.2-2.3 1.5-.9.4-1.8.6-2.8.6-1 0-1.9-.2-2.7-.6-.8-.4-1.6-.9-2.2-1.5-.6-.6-1.2-1.4-1.5-2.2-.4-.8-.6-1.7-.6-2.7z"/></svg>