<svg class="u-svg-ico u-copyBlue" viewBox="0 0 45 45" aria-hidden="true"><path d="M34.46 33.85c-.3 0-.55.24-.55.54v5.07a.3.3 0 0 1-.3.3H30.7V29.13c0-.3-.24-.53-.54-.53-.3 0-.54.24-.54.53v10.63h-5.89l1.71-1.86a.96.96 0 0 0 .23-.8l-1.62-9.53.44-.65c.24.17.42.34.77.34.36 0 .7-.2.86-.53l1.7-3.4 3.91 1.5c.14.05 2.2.97 2.2 3.4v6.9c0 .3.24.53.54.53.3 0 .54-.24.54-.54v-6.9a4.82 4.82 0 0 0-2.88-4.4l-6.5-2.5v-1.51a5.05 5.05 0 0 0 1.93-3.33c.52-.04 1-.23 1.38-.56a2.28 2.28 0 0 0 .24-3.23v-2A6.72 6.72 0 0 0 22.44 4c-3.71 0-6.73 3-6.73 6.69v2.05c-.37.4-.56.91-.56 1.44 0 .67.29 1.3.8 1.74.39.33.87.52 1.38.56a5 5 0 0 0 2.04 3.4v1.44l-6.5 2.5a4.82 4.82 0 0 0-2.87 4.4v11.24c0 .76.62 1.38 1.39 1.38h8.44c.3 0 .55-.24.55-.54 0-.3-.25-.54-.55-.54H15.4V29.13c0-.3-.24-.53-.54-.53-.3 0-.54.24-.54.53v10.63H11.4a.3.3 0 0 1-.3-.3V28.22a3.74 3.74 0 0 1 2.19-3.4l3.9-1.5 1.71 3.41c.16.33.5.53.85.53s.53-.17.78-.34l.44.65-1.63 9.54v.01c-.04.29.05.58.24.78l1.7 1.86H19.1c-.3 0-.54.24-.54.54 0 .3.24.54.54.54h14.5c.77 0 1.39-.62 1.39-1.38V34.4c0-.3-.24-.54-.54-.54zM26.8 22.93l-1.6 3.18-1.92-1.36 1.98-2.41 1.54.59zm-3.21 3.36-.41.62h-1.36l-.41-.62 1.09-.77 1.09.77zm-3.14-4.8v-1c.66.26 1.37.38 2.06.38.71 0 1.4-.15 2.03-.42v1.05L22.5 24l-2.05-2.5zm8.2-7.3a1.22 1.22 0 0 1-1.05 1.2v-2.41c.62.1 1.05.62 1.05 1.2zm-11.37 1.2a1.22 1.22 0 0 1-1.05-1.2c0-.58.49-1.05 1.05-1.18v2.38zm.03-3.48a2.7 2.7 0 0 0-.52.11V10.7c0-3.1 2.54-5.61 5.65-5.61a5.63 5.63 0 0 1 5.65 5.6v1.3a2.43 2.43 0 0 0-.5-.09c0-.52.01-.42-1.7-2.25a.97.97 0 0 0-1.24-.15 10.53 10.53 0 0 1-6.33 1.7.97.97 0 0 0-1 .72zm1.06 3.9v-3.54c2.35.14 4.8-.56 6.8-1.82.78.84 1.2 1.28 1.34 1.45v3.91a4 4 0 0 1-4 3.98 4.02 4.02 0 0 1-4.14-3.98zm1.42 10.3-1.6-3.18 1.55-.6 1.97 2.43-1.92 1.35zm.63 11.11L21.99 28H23l1.57 9.23-2.08 2.28-2.08-2.28z"/></svg>